<svg xmlns="http://www.w3.org/2000/svg" viewBox="0 0 1000 1120" font-family="Arial, 'Helvetica Neue', 'DejaVu Sans', sans-serif">
    <g transform="translate(200,40) scale(0.8714596949891068)"><g transform="translate(-14,-23.5)"><path d="M45.50,31.50L62.00,35.00L71.00,44.00L73.50,52.00L73.50,65.50L71.00,72.00L66.00,76.50L65.50,87.00L72.50,133.50L75.00,136.50L121.50,120.50L173.00,108.50L200.00,104.50L259.50,103.50L280.00,104.50L333.00,114.50L369.50,126.50L401.50,140.00L439.50,150.00L476.50,154.50L511.00,154.50L541.00,152.00L593.00,140.00L646.50,118.00L642.00,173.00L644.00,215.50L654.00,270.50L679.50,341.50L689.50,386.50L694.50,442.00L691.50,482.00L669.00,493.50L621.50,509.50L564.00,519.50L518.50,520.00L491.00,517.50L452.00,509.50L384.50,484.00L342.50,473.50L308.00,469.50L268.00,469.50L238.50,472.50L186.00,484.00L136.00,502.00L136.00,511.00L145.50,562.00L120.50,567.50L116.50,555.50L114.00,530.00L110.50,520.00L108.00,496.00L100.50,461.50L92.00,399.50L72.50,293.50L72.00,280.00L56.50,197.00L44.00,110.00L40.50,99.50L40.00,84.50L29.00,77.00L22.00,64.50L22.00,50.50L26.50,41.00L35.00,34.00L45.50,31.50ZM77.00,150.50L78.00,166.00L81.50,178.00L100.00,298.00L103.50,309.50L104.00,322.00L113.50,370.00L126.00,455.00L129.50,466.50L132.00,490.00L135.00,491.50L138.50,460.50L139.50,415.50L136.00,354.00L130.00,312.50L108.00,225.00L92.00,180.00L80.00,152.00L77.00,150.50ZM231.50,210.00L228.50,210.50L228.50,214.50L234.50,223.50L242.50,229.50L253.50,233.50L324.50,234.00L341.00,238.00L357.50,251.50L364.00,265.00L365.00,272.00L364.00,288.50L359.50,300.00L348.00,312.00L341.00,316.00L321.00,321.00L255.50,322.00L244.50,329.50L240.00,340.00L241.00,410.00L267.00,409.00L267.00,346.50L270.00,344.50L321.00,345.50L361.50,408.00L365.50,408.50L446.50,296.50L450.00,295.00L461.00,303.50L465.00,302.50L467.00,249.00L462.50,248.50L416.00,266.50L415.00,269.50L425.50,276.00L427.50,280.00L365.00,364.50L349.00,340.50L365.50,330.50L380.00,316.00L388.00,300.50L392.00,281.50L390.00,259.00L385.50,246.50L375.50,232.00L361.00,220.00L343.50,212.50L333.00,210.50L231.50,210.00ZM377.50,210.00L371.50,211.50L388.00,226.50L393.00,234.00L463.50,235.00L478.50,240.50L488.00,248.00L498.00,269.00L498.00,284.00L491.50,301.00L486.00,308.00L475.00,316.00L463.00,320.00L443.50,322.00L428.50,344.00L453.50,345.50L496.00,409.50L524.50,410.00L523.50,404.50L482.00,342.00L482.50,339.50L497.00,332.00L508.50,322.00L517.50,308.50L523.50,293.00L524.00,264.00L519.50,249.00L513.50,238.00L498.00,222.50L488.00,216.50L471.00,211.00L377.50,210.00Z" fill="#ffffff" fill-rule="evenodd"/><path d="M231.00,210.00L333.00,210.50L343.50,212.50L361.00,220.00L375.50,232.00L388.00,253.00L391.50,267.00L392.00,281.50L388.00,300.50L380.00,316.00L365.50,330.50L349.00,340.50L365.00,364.50L427.50,280.00L425.50,276.00L415.00,269.50L416.00,266.50L462.50,248.50L467.00,249.00L465.00,302.50L462.00,304.00L450.00,295.00L446.50,296.50L365.50,408.50L361.50,408.00L321.00,345.50L270.00,344.50L267.00,346.50L267.00,409.00L241.00,410.00L240.00,340.00L244.50,329.50L255.50,322.00L321.00,321.00L341.00,316.00L348.00,312.00L359.50,300.00L364.00,288.50L365.00,272.00L364.00,265.00L357.50,251.50L341.00,238.00L324.50,234.00L253.50,233.50L242.50,229.50L234.50,223.50L228.50,214.50L231.00,210.00ZM377.00,210.00L471.00,211.00L488.00,216.50L498.00,222.50L513.50,238.00L519.50,249.00L524.00,264.00L523.50,293.00L517.50,308.50L508.50,322.00L497.00,332.00L482.50,339.50L482.00,342.00L523.50,404.50L524.50,410.00L496.00,409.50L453.50,345.50L429.00,345.00L430.50,339.50L443.50,322.00L463.00,320.00L475.00,316.00L486.00,308.00L491.50,301.00L498.00,284.00L498.00,269.00L488.00,248.00L478.50,240.50L463.50,235.00L393.00,234.00L388.00,226.50L374.00,214.00L374.00,211.50L377.00,210.00Z" fill="#1aa251" fill-rule="evenodd"/></g></g>
    <text x="500" y="671.045751633987" text-anchor="middle" font-size="120" font-weight="800" letter-spacing="-1" fill="#ffffff">RANK REBELS</text>
    <text x="500" y="756.045751633987" text-anchor="middle" font-size="52" font-weight="700" letter-spacing="5" fill="#cfe8d8">RANK HIGHER. REBEL HARDER.</text>
    <text x="500" y="823.045751633987" text-anchor="middle" font-size="38" font-weight="700" letter-spacing="3" fill="#3ec46b">rankrebels.ai</text>
  </svg>